<?xml version="1.0" standalone="no"?>
<!DOCTYPE svg PUBLIC "-//W3C//DTD SVG 20010904//EN"
 "http://www.w3.org/TR/2001/REC-SVG-20010904/DTD/svg10.dtd">
<svg version="1.0" xmlns="http://www.w3.org/2000/svg"
 width="184.000000pt" height="104.000000pt" viewBox="0 0 184.000000 104.000000"
 preserveAspectRatio="xMidYMid meet">

<g transform="translate(0.000000,104.000000) scale(0.100000,-0.100000)"
fill="#000000" stroke="none">
<path d="M1530 585 l0 -135 25 0 c14 0 25 5 25 10 0 7 6 7 19 0 22 -11 61 -13
86 -4 21 9 45 56 45 92 0 60 -71 108 -119 82 -20 -10 -21 -8 -21 40 0 49 -1
50 -30 50 l-30 0 0 -135z m135 -39 c0 -52 -63 -62 -73 -12 -7 33 6 47 40 44
29 -3 33 -7 33 -32z"/>
<path d="M1160 670 c0 -18 -6 -33 -15 -36 -8 -4 -15 -15 -15 -25 0 -10 7 -19
15 -19 12 0 15 -14 15 -70 l0 -70 30 0 30 0 0 70 c0 63 2 70 20 70 13 0 20 7
20 19 0 11 -9 23 -20 26 -14 4 -20 15 -20 36 0 26 -3 29 -30 29 -27 0 -30 -3
-30 -30z"/>
<path d="M182 633 c-69 -4 -73 -5 -70 -26 3 -20 10 -22 71 -25 l67 -3 0 -64
c0 -57 2 -65 19 -65 16 0 19 11 25 87 6 86 1 106 -29 101 -5 -1 -43 -4 -83 -5z"/>
<path d="M450 623 c-12 -8 -20 -10 -20 -4 0 6 -13 11 -30 11 l-30 0 0 -90 0
-90 30 0 c29 0 29 1 32 63 3 56 5 62 25 65 28 4 40 -24 38 -85 -2 -41 0 -43
27 -43 l28 0 0 68 c0 76 -15 107 -55 114 -13 3 -34 -1 -45 -9z"/>
<path d="M644 631 c-92 -39 -57 -181 43 -181 44 0 78 20 71 41 -3 9 -20 14
-53 14 -29 0 -50 5 -52 13 -4 9 14 12 64 12 l70 0 -5 29 c-8 56 -83 95 -138
72z m76 -56 c11 -13 7 -15 -30 -15 -37 0 -41 2 -30 15 7 8 20 15 30 15 10 0
23 -7 30 -15z"/>
<path d="M802 628 c3 -7 18 -50 34 -96 26 -75 31 -82 53 -80 19 2 28 13 42 53
10 30 19 44 22 35 3 -8 11 -32 17 -52 9 -30 17 -38 35 -38 25 0 25 1 61 104
17 50 21 72 13 77 -24 15 -44 1 -59 -39 -17 -50 -26 -53 -35 -9 -16 71 -57 71
-78 -2 l-14 -46 -13 45 c-17 56 -12 51 -50 57 -25 3 -32 1 -28 -9z"/>
<path d="M1335 629 c-33 -19 -45 -41 -45 -85 0 -58 30 -94 79 -94 20 0 42 5
49 12 9 9 12 9 12 0 0 -7 13 -12 30 -12 l30 0 0 90 0 91 -37 -1 c-21 0 -51 2
-68 5 -16 3 -39 0 -50 -6z m91 -75 c13 -51 -44 -72 -73 -27 -13 19 -12 24 6
42 25 25 59 17 67 -15z"/>
<path d="M170 542 c-13 -15 -13 -19 1 -33 15 -15 18 -15 33 2 9 11 11 19 6 19
-6 0 -10 7 -10 15 0 19 -11 18 -30 -3z"/>
<path d="M1225 384 c-9 -9 -13 -19 -10 -22 3 -3 11 3 19 13 8 11 19 16 30 12
10 -4 15 -3 11 3 -9 15 -32 12 -50 -6z"/>
<path d="M1397 393 c-4 -3 -7 -21 -7 -40 0 -28 3 -33 25 -33 14 0 29 8 35 19
11 21 4 51 -11 51 -6 0 -6 -7 -1 -17 13 -25 4 -43 -20 -43 -17 0 -20 5 -16 35
4 38 4 38 -5 28z"/>
<path d="M1482 388 c-5 -7 -9 -24 -8 -38 1 -18 7 -25 24 -26 18 -1 19 -1 2 3
-27 6 -25 23 3 24 16 1 18 2 5 6 -21 5 -24 29 -5 36 7 4 8 6 1 6 -6 1 -16 -5
-22 -11z"/>
<path d="M1610 371 l-13 -33 -15 27 c-11 22 -16 25 -23 14 -5 -8 -8 -25 -7
-39 1 -23 1 -24 5 -2 5 26 12 28 28 6 10 -14 13 -13 29 11 9 14 16 31 14 37
-2 6 -10 -3 -18 -21z"/>
<path d="M1141 358 c-6 -17 -9 -34 -6 -36 3 -3 5 0 5 6 0 7 9 12 20 12 11 0
20 -5 20 -12 0 -6 3 -8 6 -5 8 8 -15 67 -26 67 -5 0 -13 -14 -19 -32z m29 2
c0 -5 -5 -10 -11 -10 -5 0 -7 5 -4 10 3 6 8 10 11 10 2 0 4 -4 4 -10z"/>
<path d="M1326 381 c-3 -4 -10 -21 -16 -36 -10 -25 -9 -27 5 -15 13 11 21 11
35 3 16 -11 17 -9 7 23 -10 34 -21 42 -31 25z m18 -16 c3 -8 1 -15 -4 -15 -6
0 -10 7 -10 15 0 8 2 15 4 15 2 0 6 -7 10 -15z"/>
<path d="M1674 354 c7 -24 12 -29 14 -17 2 10 8 22 13 28 14 14 11 31 -3 17
-8 -8 -16 -8 -23 -2 -9 8 -9 2 -1 -26z"/>
<path d="M1632 340 c0 -14 2 -19 5 -12 2 6 2 18 0 25 -3 6 -5 1 -5 -13z"/>
<path d="M1223 340 c4 -17 57 -27 57 -12 0 6 -9 8 -21 5 -12 -4 -25 0 -31 8
-8 12 -9 11 -5 -1z"/>
</g>
</svg>
